<svg xmlns="http://www.w3.org/2000/svg" enable-background="new 0 0 128 128" viewBox="0 0 128 128" id="current-location"><path fill="#fbdddf" d="M92.974,115.143c0,6.535-12.973,11.857-28.98,11.857c-16.006,0-28.966-5.322-28.966-11.857c0-6.535,12.974-11.857,28.98-11.857C80.014,103.286,92.974,108.608,92.974,115.143z"></path><path fill="#ee8d99" d="M102.328,39.316c0,9.35-3.36,17.906-8.914,24.564C81.792,77.788,72.21,93.267,65.847,110.24l-1.851,4.901l-2.878-7.685c-5.958-15.868-15.059-30.274-26.136-43.108c-6.145-7.125-9.723-16.521-9.272-26.758C26.581,17.847,42.667,1.839,62.409,1.03C84.297,0.143,102.328,17.629,102.328,39.316z"></path><path fill="#fbdddf" d="M90.737,39.333c0,14.74-11.99,26.731-26.721,26.731c-14.77,0-26.751-11.99-26.751-26.731c0-14.76,11.98-26.751,26.751-26.751C78.746,12.582,90.737,24.572,90.737,39.333z"></path><path fill="#fbdddf" d="M64.004,22.262c9.41,0,17.055,7.644,17.055,17.067c0,9.41-7.645,17.055-17.055,17.055c-9.422,0-17.067-7.644-17.067-17.055C46.938,29.906,54.582,22.262,64.004,22.262z"></path><path fill="#f53140" d="M103.32,39.319c0-22.36-18.596-40.221-40.949-39.283C42.148,0.855,25.608,17.329,24.719,37.541c-0.445,10.09,2.932,19.841,9.509,27.458c10.236,11.851,18.233,24.454,23.833,37.535c-13.866,1.153-24.032,6.277-24.032,12.61c0,7.209,13.162,12.857,29.966,12.857c16.811,0,29.979-5.648,29.979-12.857c0-6.311-10.093-11.421-23.88-12.597c5.887-13.157,13.96-25.916,24.087-38.027C100.074,57.47,103.32,48.52,103.32,39.319z M91.973,115.143c0,5.243-11.243,10.857-27.979,10.857c-16.728,0-27.966-5.613-27.966-10.857c0-4.685,8.994-9.651,22.846-10.658c1.255,3.074,1.471,3.805,4.192,11.007c0.324,0.862,1.549,0.863,1.873,0c1.41-3.697,2.363-6.506,4.294-11.001C83.024,105.514,91.973,110.469,91.973,115.143z M64.003,112.293c-1.525-3.234-6.916-23.887-28.262-48.601c-6.242-7.229-9.448-16.485-9.025-26.063C27.561,18.447,43.258,2.811,62.451,2.033c20.933-0.858,38.869,15.767,38.869,37.285c0,8.733-3.081,17.227-8.675,23.918C71.089,89.017,64.863,110.486,64.003,112.293z"></path><path fill="#f53140" d="M94.364,38.323H91.71C91.19,23.817,79.494,12.119,64.998,11.61V8.956c0-0.553-0.447-1-1-1s-1,0.447-1,1v2.655c-14.499,0.526-26.191,12.217-26.712,26.711h-2.654c-0.553,0-1,0.447-1,1c0,0.553,0.447,1,1,1h2.653c0.515,14.494,12.209,26.185,26.712,26.711v2.654c0,0.553,0.447,1,1,1s1-0.447,1-1v-2.653c14.5-0.508,26.198-12.207,26.712-26.712h2.654c0.553,0,1-0.447,1-1C95.364,38.77,94.917,38.323,94.364,38.323z M89.71,38.323h-7.702c-0.508-9.162-7.853-16.508-17.01-17.011V13.61C78.391,14.117,89.192,24.919,89.71,38.323z M77.43,40.323h2.579c-0.497,8.059-6.952,14.513-15.011,15.011v-2.579c0-0.553-0.447-1-1-1s-1,0.447-1,1v2.578c-8.059-0.502-14.512-6.955-15.01-15.01h2.578c0.553,0,1-0.447,1-1c0-0.553-0.447-1-1-1h-2.577c0.502-8.056,6.954-14.508,15.009-15.01v2.578c0,0.553,0.447,1,1,1s1-0.447,1-1v-2.579c8.055,0.498,14.508,6.951,15.01,15.011H77.43c-0.553,0-1,0.447-1,1C76.43,39.875,76.877,40.323,77.43,40.323z M62.998,13.611v7.701c-9.157,0.508-16.501,7.852-17.009,17.01h-7.702C38.805,24.931,49.602,14.135,62.998,13.611z M38.286,40.323h7.702c0.503,9.157,7.848,16.502,17.01,17.01v7.701C49.598,64.51,38.799,53.713,38.286,40.323z M64.998,65.035v-7.701c9.161-0.503,16.508-7.85,17.011-17.011h7.701C89.198,53.725,78.395,64.528,64.998,65.035z"></path></svg>