<svg xmlns="http://www.w3.org/2000/svg" data-name="Layer 1" viewBox="0 0 512 512" id="shelter"><polygon fill="#00acea" points="475.14 208.26 475.14 297.69 422.06 256.63 256.28 128.39 86.05 259.73 36.86 297.69 36.86 208.26 256.28 38.96 475.14 208.26"></polygon><path fill="#00efd1" d="M422.06,256.63l-.41.53V473.04H86.46V260.26l-.41-.53L256.28,128.39ZM258.09,404.1c65.18-26.41,87.19-73.98,80.27-109.61-4.82-23.9-21.79-39.41-43.8-39.41-12.16,0-25.57,5.03-38.56,14.46-13.21-9.85-26.41-14.88-38.78-14.88-22,0-38.98,15.51-43.59,39.83-6.92,36.04,15.3,83.83,80.27,109.61a5.435,5.435,0,0,0,4.19,0Z"></path><path fill="#ea5281" d="M338.36,294.49c6.92,35.63-15.09,83.2-80.27,109.61a5.435,5.435,0,0,1-4.19,0c-64.97-25.78-87.19-73.57-80.27-109.61,4.61-24.32,21.59-39.83,43.59-39.83,12.37,0,25.57,5.03,38.78,14.88,12.99-9.43,26.4-14.46,38.56-14.46C316.57,255.08,333.54,270.59,338.36,294.49Z"></path><path fill="#083863" d="M479.965,201.932,261.14,32.632a7.976,7.976,0,0,0-9.765-.006L32.034,201.926A7.927,7.927,0,0,0,29,208.26v89.43a7.936,7.936,0,0,0,4.4,7.18,7.546,7.546,0,0,0,8.151-.847L78,275.693V473.04c0,4.418,4.042,7.96,8.46,7.96H421.65a8.273,8.273,0,0,0,8.35-7.96V272.615l40.42,31.4a7.755,7.755,0,0,0,4.809,1.672,7.527,7.527,0,0,0,3.409-.818A7.9,7.9,0,0,0,483,297.69V208.26A7.934,7.934,0,0,0,479.965,201.932ZM94,465V263.346L256.219,138.5,414,260.238V465ZM467,281.387,261.105,122.062a7.849,7.849,0,0,0-9.677-.006L45,281.411v-69.22L256.273,49.069,467,212.186Z"></path><path fill="#083863" d="M346.2,292.909c-5.614-27.84-25.885-45.829-51.642-45.829-12.367,0-25.579,4.38-38.492,12.717-13.078-8.721-26.124-13.137-38.848-13.137-25.918,0-46.114,18.19-51.447,46.322-7.526,39.2,15.892,91.061,85.176,118.554.139.055.28.107.421.153a15.2,15.2,0,0,0,4.63.831,14.729,14.729,0,0,0,4.62-.831q.24-.079.474-.174c69.255-28.061,92.653-79.761,85.119-118.55ZM255.985,396.318c-60.115-24.19-80.753-67.747-74.495-100.338,3.9-20.552,17.587-33.32,35.73-33.32,10.579,0,22.335,4.6,34,13.294a8,8,0,0,0,9.482.06c11.655-8.461,23.364-12.934,33.86-12.934,18.068,0,31.842,12.63,35.952,32.965C339.147,340.622,299.449,378.413,255.985,396.318Z"></path></svg>